# xmcd CD database file
#
# Track frame offsets:
#	200
#	13987
#	23912
#	38487
#	52050
#	67437
#	80800
#	97350
#	112282
#	130175
#	146537
#
# Disc length: 2146 seconds
#
# Revision: 0
# Processed by: cddbd v1.5.1PL0 Copyright (c) Steve Scherf et al.
# Submitted via: CDex 1.51
#
DISCID=ad08600b
DTITLE=Boxcar Willie - Falling In Love
DYEAR=1900
DGENRE=Country
TTITLE0=Falling Un Love
TTITLE1=I Shout Hooray
TTITLE2=Thank God The Fighting Is Over
TTITLE3=Jesus I Need To Talk To You
TTITLE4=To Love A Girl Like You
TTITLE5=Lord Don't Let Me Go
TTITLE6=Maggie
TTITLE7=I Want To See My Home Town
TTITLE8=Lova Is A Fire
TTITLE9=Hey, Hey Sombreno
TTITLE10=Losing My Mind
EXTD=
EXTT0=
EXTT1=
EXTT2=
EXTT3=
EXTT4=
EXTT5=
EXTT6=
EXTT7=
EXTT8=
EXTT9=
EXTT10=
PLAYORDER=
